<svg width="32" height="32" viewBox="0 0 32 32" fill="none" xmlns="http://www.w3.org/2000/svg">
<g clip-path="url(#clip0_5314_24998)">
<g clip-path="url(#clip1_5314_24998)">
<path d="M32 16C32 7.16344 24.8366 0 16 0C7.16344 0 0 7.16344 0 16C0 24.8366 7.16344 32 16 32C24.8366 32 32 24.8366 32 16Z" fill="#0A0A0A"/>
<path d="M26.0984 17.0356L18.5752 5.65734C18.5384 5.60209 18.4531 5.62535 18.4492 5.69126C18.4317 5.97916 18.1884 7.51656 16.4552 7.51656C15.0487 7.51656 14.4002 7.26356 12.9511 7.26356C12.4499 7.26356 11.8537 7.54756 11.5406 8.02256L10.9493 8.91725L16.6094 17.4757H18.8234C19.4767 17.4757 20.0864 17.8033 20.4461 18.3481L21.7983 20.3934H26.4027V18.0417C26.4027 17.6851 26.2971 17.3351 26.0993 17.0366L26.0984 17.0356ZM19.9246 12.1617C19.0153 11.7933 18.3067 10.1813 18.3067 10.1813C20.1426 10.1813 21.3815 12.3691 21.3815 12.3691C21.3815 12.3691 20.8338 12.5301 19.9246 12.1617Z" fill="url(#paint0_linear_5314_24998)"/>
<path d="M19.2907 24.7671H10.9766C10.3794 24.7681 9.82207 24.4686 9.49251 23.9703L5.95243 18.6166C5.52204 17.9661 5.52204 17.1209 5.95243 16.4704L9.88995 10.5225L9.89188 10.5206L19.2898 24.7661L19.2907 24.7671Z" fill="url(#paint1_linear_5314_24998)"/>
</g>
</g>
<defs>
<linearGradient id="paint0_linear_5314_24998" x1="18.676" y1="20.3934" x2="18.676" y2="5.62639" gradientUnits="userSpaceOnUse">
<stop stop-color="#FCB124"/>
<stop offset="1" stop-color="#F63E58"/>
</linearGradient>
<linearGradient id="paint1_linear_5314_24998" x1="12.4602" y1="24.7671" x2="12.4602" y2="10.5206" gradientUnits="userSpaceOnUse">
<stop stop-color="#FCB124"/>
<stop offset="1" stop-color="#F63E58"/>
</linearGradient>
<clipPath id="clip0_5314_24998">
<rect width="32" height="32" fill="white" transform="translate(0 0.000854492)"/>
</clipPath>
<clipPath id="clip1_5314_24998">
<rect width="32" height="32" fill="white"/>
</clipPath>
</defs>
</svg>
