<svg width="60" height="60" viewBox="0 0 60 60" fill="none" xmlns="http://www.w3.org/2000/svg">
<path fill-rule="evenodd" clip-rule="evenodd" d="M25.5892 18.6886H44.4051C45.4707 18.6886 46.0894 19.9432 45.4638 20.8403L36.5096 33.5825C35.8805 34.4762 36.4992 35.7343 37.5683 35.7343H45.4569C45.8763 35.7343 46.2716 35.528 46.5156 35.174L55.3702 22.5727C55.5328 22.3393 55.62 22.0616 55.62 21.777C55.62 21.4925 55.5328 21.2147 55.3702 20.9813L47.6121 9.93026C47.4927 9.75826 47.3334 9.61776 47.1478 9.52078C46.9622 9.4238 46.7559 9.37324 46.5465 9.37341H23.4443C23.2361 9.37434 23.0311 9.42544 22.8468 9.52237C22.6625 9.6193 22.5043 9.75921 22.3856 9.93026L14.6241 20.9813C14.4619 21.2149 14.375 21.4926 14.375 21.777C14.375 22.0614 14.4619 22.3391 14.6241 22.5727L33.9384 50.0645C34.0561 50.2367 34.214 50.3777 34.3985 50.4751C34.583 50.5725 34.7885 50.6234 34.9971 50.6234C35.2058 50.6234 35.4112 50.5725 35.5957 50.4751C35.7802 50.3777 35.9382 50.2367 36.0558 50.0645L40.0019 44.4479C40.1645 44.2144 40.2517 43.9367 40.2517 43.6521C40.2517 43.3676 40.1645 43.0899 40.0019 42.8564L24.5339 20.8403C23.9049 19.9466 24.5202 18.6886 25.5892 18.6886Z" fill="#1EB5FA"/>
</svg>
