<svg width="250" height="250" viewBox="0 0 250 250" fill="none" xmlns="http://www.w3.org/2000/svg">
<path fill-rule="evenodd" clip-rule="evenodd" d="M249.609 124.805C249.609 193.732 193.732 249.609 124.805 249.609C55.8769 249.609 0 193.732 0 124.805C0 55.8769 55.8769 0 124.805 0C193.732 0 249.609 55.8769 249.609 124.805ZM174.953 155.995C179.767 151.123 184.241 145.928 188.345 140.445C199.199 125.827 203.324 112.504 204.12 100.906C204.803 90.924 194.471 55.8801 194.471 55.8801C194.471 55.8801 162.483 45.8296 149.466 46.2678C137.843 46.6698 124.54 51.1724 109.923 62.039C104.454 66.1313 99.2695 70.5906 94.4052 75.386C88.8011 72.9739 81.8743 74.1799 77.1184 78.9559L71.5224 84.552C70.5575 85.5168 69.6208 86.5621 68.7444 87.6154C66.4726 90.3664 64.5597 93.3951 63.0518 96.6286C62.6096 97.5693 62.2478 98.4497 61.9061 99.3181C60.3197 103.431 59.4246 107.778 59.2568 112.183C59.2042 113.63 59.2337 115.08 59.3452 116.524C59.5928 119.808 60.2825 123.042 61.3955 126.141C61.3714 121.968 62.5131 118.478 64.9574 116.034C73.846 107.145 96.5761 115.463 115.728 134.615C134.88 153.767 143.194 176.497 134.305 185.386C131.853 187.838 128.344 188.98 124.15 188.944C137.771 193.845 154.213 190.379 165.775 178.817L171.372 173.221C176.075 168.453 177.305 161.591 174.953 155.995ZM46.2539 203.857C46.2539 203.857 97.8408 179.242 105.29 171.796C108.866 168.219 110.874 163.369 110.874 158.311C110.874 153.253 108.866 148.402 105.29 144.825C103.52 143.054 101.417 141.648 99.1032 140.69C96.7893 139.731 94.3092 139.237 91.8045 139.237C89.2999 139.237 86.8197 139.731 84.5058 140.69C82.1919 141.648 80.0895 143.054 78.3188 144.825C70.8694 152.27 46.2539 203.857 46.2539 203.857Z" fill="#00FFA7"/>
</svg>
