<svg width="38" height="50" viewBox="0 0 38 50" fill="none" xmlns="http://www.w3.org/2000/svg">
<path d="M23.5803 9.37729L24.1889 8.59705L24.7973 7.81684L29.6654 1.51669L30.672 0.211463C30.3713 0.0729196 30.0409 0 29.7029 0H7.81222C7.45913 0 7.11358 0.0802109 6.80557 0.233339C6.49757 0.386468 6.21962 0.605222 6.00927 0.87502L3.68799 3.87925L1.36672 6.88349C0.968575 7.40119 0.961062 8.021 1.21648 8.51685C1.47189 9.0127 1.99023 9.37729 2.65882 9.37729H20.3651H23.5878H23.5803Z" fill="#86EAE0"/>
<path d="M18.797 24.6758C18.8571 25.0039 18.9998 25.3101 19.2027 25.5799L30.8241 40.623H37.5023C37.5023 40.1636 37.3522 39.6968 37.0518 39.3103L27.7365 27.2496L18.8421 15.7359C18.782 15.9328 18.7519 16.137 18.7519 16.3484V24.2673C18.7519 24.4058 18.767 24.5443 18.797 24.6758Z" fill="#86EAE0"/>
<path d="M31.527 17.843L37.056 10.6897C37.6646 9.91678 37.6496 8.83031 37.056 8.06466L33.9385 4.03228C33.5703 3.55103 31.8275 1.30514 31.497 0.87492C31.2866 0.59783 31.0087 0.379078 30.7008 0.233241C30.6857 0.233241 30.6707 0.218656 30.6632 0.211365L29.6566 1.5166L24.7886 7.81673L24.1802 8.59696L23.5716 9.37718L19.192 15.0429C19.0268 15.2544 18.9066 15.495 18.8314 15.7429L25.9831 25.0035L31.512 17.8503L31.527 17.843Z" fill="#3FABD1"/>
<path d="M15.9259 35.4091L10.9829 29.0142C10.3368 28.1829 9.05225 28.1829 8.4062 29.0142L0.45075 39.3101C-0.157739 40.0903 -0.142714 41.1769 0.45075 41.9352L1.96822 43.9041L4.56745 47.2656L6.00227 49.1249C6.21263 49.402 6.49058 49.6209 6.79857 49.7667C6.8136 49.7667 6.82864 49.7813 6.84365 49.7886L13.9277 40.6228L15.9259 38.0342C16.5269 37.2538 16.5269 36.1892 15.9259 35.4091Z" fill="#86EAE0"/>
<path d="M34.9323 40.6226H13.928L6.84396 49.7884C7.14444 49.9269 7.46747 49.9998 7.80551 49.9998H29.6887C30.3947 49.9998 31.0634 49.679 31.4916 49.1249L34.4439 45.3113C34.549 45.1801 36.1415 43.1164 36.1793 43.0654L37.0656 41.9206C37.3585 41.5342 37.5014 41.0821 37.5014 40.6226H34.9247H34.9323Z" fill="#3FABD1"/>
</svg>
