<svg width="46" height="14" viewBox="0 0 46 14" fill="none" xmlns="http://www.w3.org/2000/svg">
<path id="Vector" d="M12.5193 7.49146V7.91384L11.5297 8.75097V11.9457C9.4125 12.7598 7.83987 13.113 6.42074 13.113C2.21691 13.113 0 9.89526 0 7.00767C0 4.10476 2.24763 0.886963 6.81963 0.886963C8.37686 0.886963 9.91107 1.25559 10.9314 1.67029L11.384 4.65004H10.8163L7.31829 1.67029C4.56431 2.16179 3.07613 4.05866 3.07613 6.83875C3.07613 9.82613 4.77146 11.9765 7.10353 11.9765C7.54846 11.9765 8.00869 11.892 8.47663 11.7461V9.26552L6.85805 7.91386V7.49148L12.5193 7.49146ZM23.5965 10.8705L25.4376 12.4603V12.898H21.6711L18.9248 7.52987C18.7407 7.53755 18.5489 7.53755 18.3495 7.53755H17.6744V10.9012L19.4848 12.4602V12.8979H13.2098V12.4602L15.0279 10.9012V3.09863L13.2098 1.53967V1.10193H18.618C19.9681 1.10193 23.796 1.10193 23.796 4.27364C23.796 5.84801 22.8524 6.86168 20.9116 7.29947L22.0393 7.79097L23.5965 10.8705ZM18.2423 6.46238C19.5771 6.46238 20.9349 6.00159 20.9349 4.289C20.9349 2.83754 19.9683 2.19246 17.6746 2.17712V6.46238H18.2423ZM32.2805 1.53998L30.4701 3.09894V10.9015L32.2805 12.4605V12.8982H26.0055V12.4605L27.8236 10.9015V3.09894L26.0055 1.53998V1.10224H32.2805V1.53998ZM42.6442 10.3713L45.0837 12.4603V12.898H38.9621V12.4603L40.2355 11.3698L38.1489 8.03675L36.1698 11.1547L37.6887 12.4679L37.727 12.8979H33.0783L33.1166 12.4679L35.2569 10.6018L37.5122 7.023L35.3259 3.51337L33.0169 1.53967V1.10193H39.0617V1.53967L37.7346 2.67625L39.6754 5.71742L41.5011 2.84525L39.9899 1.53204L39.9515 1.10197H44.6003L44.5619 1.53204L42.414 3.39817L40.3198 6.73117L42.6442 10.3713Z" fill="white"/>
</svg>
