<svg width="264" height="68" viewBox="0 0 132 34" fill="none" xmlns="http://www.w3.org/2000/svg">

<path d="M25.4274 7.37866L8.44466 7.37866V7.38215C7.23467 7.44841 6.27393 8.45055 6.27393 9.67708C6.27393 10.9465 7.30296 11.9755 8.57235 11.9755C9.75541 11.9755 10.7297 11.0817 10.8567 9.93246L23.143 9.93246C23.2701 11.0817 24.2444 11.9755 25.4274 11.9755C26.6968 11.9755 27.7259 10.9465 27.7259 9.67708C27.7259 8.4077 26.6968 7.37866 25.4274 7.37866Z" fill="white"/>

<path d="M12.403 11.9755C11.6978 11.9755 11.1261 12.5472 11.1261 13.2524V24.7445C11.1261 25.4497 11.6978 26.0214 12.403 26.0214C13.1083 26.0214 13.6799 25.4497 13.6799 24.7445V13.2524C13.6799 12.5472 13.1083 11.9755 12.403 11.9755Z" fill="white"/>

<path d="M16.9999 11.9755C16.2947 11.9755 15.723 12.5472 15.723 13.2524V24.7445C15.723 25.4497 16.2947 26.0214 16.9999 26.0214C17.7051 26.0214 18.2768 25.4497 18.2768 24.7445V13.2524C18.2768 12.5472 17.7051 11.9755 16.9999 11.9755Z" fill="white"/>

<path d="M20.3198 13.2524C20.3198 12.5472 20.8915 11.9755 21.5967 11.9755C22.3019 11.9755 22.8736 12.5472 22.8736 13.2524V24.7445C22.8736 25.4497 22.3019 26.0214 21.5967 26.0214C20.8915 26.0214 20.3198 25.4497 20.3198 24.7445V13.2524Z" fill="white"/>

<path d="M54.9392 17.6649V18.2364L53.6002 19.3691V23.6917C50.7355 24.7932 48.6077 25.2711 46.6875 25.2711C40.9996 25.2711 38 20.9173 38 17.0103C38 13.0826 41.0411 8.72876 47.2272 8.72876C49.3342 8.72876 51.4101 9.22752 52.7906 9.78863L53.403 13.8203H52.6349L47.9019 9.78863C44.1757 10.4536 42.1621 13.0202 42.1621 16.7818C42.1621 20.8238 44.456 23.7333 47.6114 23.7333C48.2134 23.7333 48.8361 23.619 49.4692 23.4216V20.0653L47.2792 18.2364V17.6649L54.9392 17.6649ZM69.927 22.2369L72.4181 24.3879V24.9802H67.3218L63.606 17.7169C63.3569 17.7273 63.0974 17.7273 62.8275 17.7273H61.9141V22.2784L64.3637 24.3878V24.9801H55.8733V24.3878L58.3333 22.2784V11.7212L55.8733 9.6119V9.01962H63.1908C65.0177 9.01962 70.1969 9.01962 70.1969 13.3111C70.1969 15.4413 68.9202 16.8128 66.2943 17.4051L67.82 18.0702L69.927 22.2369ZM62.6826 16.2725C64.4886 16.2725 66.3257 15.6491 66.3257 13.3319C66.3257 11.368 65.0179 10.4951 61.9145 10.4744V16.2725H62.6826ZM81.6768 9.61232L79.2273 11.7217V22.2789L81.6768 24.3882V24.9805H73.1865V24.3882L75.6464 22.2789V11.7217L73.1865 9.61232V9.02004H81.6768V9.61232ZM95.6993 21.5615L99 24.3879V24.9802H90.7172V24.3879L92.4402 22.9124L89.617 18.4027L86.9391 22.6214L88.9942 24.3982L89.0461 24.9801H82.7562L82.8081 24.3982L85.7039 21.8732L88.7555 17.0311L85.7973 12.2824L82.6731 9.61189V9.01961H90.852V9.61189L89.0564 11.1497L91.6823 15.2646L94.1526 11.3784L92.1079 9.60157L92.056 9.01968H98.3459L98.294 9.60157L95.3878 12.1265L92.5542 16.6362L95.6993 21.5615Z" fill="white"/>

<g filter="url(#filter0_d_5804_320881)">

<rect x="106.25" y="16.25" width="24.5" height="8.5" stroke="white" stroke-width="0.5"/>

<path d="M110.991 23H110.147L111.683 18.6364H112.659L114.197 23H113.354L112.188 19.5312H112.154L110.991 23ZM111.018 21.2891H113.32V21.924H111.018V21.2891ZM115.509 18.6364V23H114.738V18.6364H115.509ZM116.303 24.2273V19.7273H117.061V20.2685H117.106C117.146 20.1889 117.202 20.1044 117.274 20.0149C117.347 19.924 117.445 19.8466 117.568 19.7827C117.692 19.7173 117.849 19.6847 118.041 19.6847C118.294 19.6847 118.522 19.7493 118.725 19.8786C118.93 20.0064 119.092 20.196 119.211 20.4474C119.332 20.6974 119.392 21.0043 119.392 21.3679C119.392 21.7273 119.333 22.0327 119.215 22.2841C119.097 22.5355 118.937 22.7273 118.734 22.8594C118.531 22.9915 118.3 23.0575 118.043 23.0575C117.856 23.0575 117.7 23.0263 117.577 22.9638C117.453 22.9013 117.354 22.826 117.278 22.7379C117.205 22.6484 117.147 22.5639 117.106 22.4844H117.074V24.2273H116.303ZM117.059 21.3636C117.059 21.5753 117.089 21.7607 117.148 21.9197C117.21 22.0788 117.297 22.2031 117.411 22.2926C117.526 22.3807 117.665 22.4247 117.828 22.4247C117.999 22.4247 118.141 22.3793 118.256 22.2884C118.371 22.196 118.458 22.0703 118.516 21.9112C118.576 21.7507 118.606 21.5682 118.606 21.3636C118.606 21.1605 118.577 20.9801 118.518 20.8224C118.46 20.6648 118.374 20.5412 118.259 20.4517C118.143 20.3622 118 20.3175 117.828 20.3175C117.663 20.3175 117.523 20.3608 117.408 20.4474C117.293 20.5341 117.206 20.6555 117.146 20.8118C117.088 20.968 117.059 21.152 117.059 21.3636ZM120.824 21.0824V23H120.053V18.6364H120.807V20.2834H120.845C120.922 20.0987 121.04 19.9531 121.201 19.8466C121.363 19.7386 121.569 19.6847 121.819 19.6847C122.046 19.6847 122.244 19.7322 122.413 19.8274C122.582 19.9226 122.713 20.0618 122.805 20.245C122.899 20.4283 122.946 20.652 122.946 20.9162V23H122.175V21.0355C122.175 20.8153 122.118 20.6442 122.004 20.522C121.892 20.3984 121.734 20.3366 121.531 20.3366C121.395 20.3366 121.273 20.3665 121.165 20.4261C121.058 20.4844 120.974 20.5689 120.913 20.6797C120.854 20.7905 120.824 20.9247 120.824 21.0824ZM124.674 23.0661C124.467 23.0661 124.28 23.0291 124.114 22.9553C123.949 22.88 123.818 22.7692 123.722 22.6229C123.626 22.4766 123.579 22.2962 123.579 22.0817C123.579 21.897 123.613 21.7443 123.681 21.6236C123.749 21.5028 123.842 21.4062 123.96 21.3338C124.078 21.2614 124.211 21.2067 124.359 21.1697C124.508 21.1314 124.662 21.1037 124.821 21.0866C125.013 21.0668 125.168 21.049 125.288 21.0334C125.407 21.0163 125.494 20.9908 125.548 20.9567C125.603 20.9212 125.631 20.8665 125.631 20.7926V20.7798C125.631 20.6193 125.583 20.495 125.488 20.407C125.393 20.3189 125.256 20.2749 125.077 20.2749C124.888 20.2749 124.738 20.3161 124.627 20.3984C124.518 20.4808 124.444 20.5781 124.406 20.6903L123.685 20.5881C123.742 20.3892 123.836 20.223 123.967 20.0895C124.097 19.9545 124.257 19.8537 124.446 19.7869C124.635 19.7188 124.844 19.6847 125.072 19.6847C125.23 19.6847 125.387 19.7031 125.543 19.7401C125.7 19.777 125.842 19.8381 125.972 19.9233C126.101 20.0071 126.205 20.1214 126.283 20.2663C126.362 20.4112 126.402 20.5923 126.402 20.8097V23H125.661V22.5504H125.635C125.588 22.6413 125.522 22.7266 125.437 22.8061C125.353 22.8842 125.247 22.9474 125.119 22.9957C124.993 23.0426 124.844 23.0661 124.674 23.0661ZM124.874 22.4993C125.029 22.4993 125.163 22.4687 125.277 22.4077C125.391 22.3452 125.478 22.2628 125.539 22.1605C125.602 22.0582 125.633 21.9467 125.633 21.826V21.4403C125.609 21.4602 125.567 21.4787 125.509 21.4957C125.452 21.5128 125.388 21.5277 125.317 21.5405C125.246 21.5533 125.176 21.5646 125.107 21.5746C125.037 21.5845 124.977 21.593 124.925 21.6001C124.81 21.6158 124.707 21.6413 124.616 21.6768C124.526 21.7124 124.454 21.7621 124.401 21.826C124.349 21.8885 124.322 21.9695 124.322 22.0689C124.322 22.2109 124.374 22.3182 124.478 22.3906C124.582 22.4631 124.714 22.4993 124.874 22.4993Z" fill="white"/>

</g>

<defs>

<filter id="filter0_d_5804_320881" x="105" y="15.5" width="27" height="11" filterUnits="userSpaceOnUse" color-interpolation-filters="sRGB">

<feFlood flood-opacity="0" result="BackgroundImageFix"/>

<feColorMatrix in="SourceAlpha" type="matrix" values="0 0 0 0 0 0 0 0 0 0 0 0 0 0 0 0 0 0 127 0" result="hardAlpha"/>

<feOffset dy="0.5"/>

<feGaussianBlur stdDeviation="0.5"/>

<feColorMatrix type="matrix" values="0 0 0 0 0.0627451 0 0 0 0 0.0941176 0 0 0 0 0.156863 0 0 0 0.05 0"/>

<feBlend mode="normal" in2="BackgroundImageFix" result="effect1_dropShadow_5804_320881"/>

<feBlend mode="normal" in="SourceGraphic" in2="effect1_dropShadow_5804_320881" result="shape"/>

</filter>

</defs>

</svg>