<?xml version="1.0" encoding="utf-8"?>
<!-- Generator: Adobe Illustrator 28.1.0, SVG Export Plug-In . SVG Version: 6.00 Build 0)  -->
<svg version="1.1" id="Layer_1" xmlns="http://www.w3.org/2000/svg" xmlns:xlink="http://www.w3.org/1999/xlink" x="0px" y="0px"
	 viewBox="0 0 800 800" style="enable-background:new 0 0 800 800;" xml:space="preserve">
<style type="text/css">
	.st0{fill-rule:evenodd;clip-rule:evenodd;fill:#C7C7C7;}
	.st1{fill:#C7C7C7;}
</style>
<path class="st0" d="M354.5,478.3L391,504v64.3l-17.2-13.9v-32.1l-19.2-13.9L354.5,478.3L354.5,478.3z M445.6,508.3l-19.2,13.9v32.1
	l-17.2,13.9V504l36.4-25.7L445.6,508.3L445.6,508.3z M155.5,242.4l28.2,19.5l40.1,27.7l15.6,10.8l83.6,57.8l55.7,38.6L365.3,408
	c-27.5,22.9-66,26.1-96.7,9l-36-24.9l-5.8-68.3l-126.6-87.6V276c0,42.2,20.7,81.7,55.4,105.7l28.2,19.5l52.8,36.5l28.5,19.7l9.1,106
	l-23.9-16.5l-4.6-3.1l-5.8-68.3l-128.8-89.2v39.8c0,38.7,17.4,75.2,47.1,99.5l0.5,0.4c0.6,0.5,1.1,0.9,1.7,1.3l239.9,191.1
	L640,527.1c0.6-0.5,1.1-0.9,1.7-1.3l0.5-0.4c29.7-24.3,47.1-60.8,47.1-99.5v-39.8l-128.8,89.2l-5.8,68.3l-4.6,3.2l-23.9,16.6
	l9.1-106l28.5-19.7l52.8-36.5l28.2-19.5c34.7-24,55.4-63.5,55.4-105.7v-39.8l-126.6,87.6l-5.8,68.3l-36,24.9
	c-30.7,17.2-69.2,13.9-96.7-9l-13.4-11.2l55.7-38.6l83.6-57.8l15.6-10.8l40.1-27.7l28.2-19.5c34.7-24,55.4-63.5,55.4-105.7V97.3
	l-114.2,80.5l-5.5,66.4l-19.5,13.5l-9,6.2l-74.6,51.7l-56,38.4h-11.8l17.7-49.3c0,0-1-20.4-5.9-47.1c-4.9-26.8-21.4-75-21.4-75
	s-16.6,48.2-21.4,75c-4.9,26.8-5.9,47.1-5.9,47.1l17.7,49.3h-11.8L323,315.4l-74.6-51.7l-9-6.2L219.9,244l-5.8-66.6L100,96.9
	l0.1,39.8C100.1,178.9,120.8,218.4,155.5,242.4z"/>
<path class="st0" d="M391.4,144.7l27.8,12.3l-15.1-60.6l-11.7,44.1l-3.8,14.2l-3.8,14l-4.7-1.6L404,86.6l22.1,79.1L391.4,144.7z"/>
<path class="st0" d="M483.1,144.7l27.8,12.3l-15.1-60.6l-11.7,44.1l-3.8,14.2l-3.7,14l-4.7-1.6l23.9-80.5l22.1,79.1L483.1,144.7z"/>
<path class="st1" d="M463,161.2l-3.7,5.2L424,123.5l34.9-41.7l3.7,5.1L430,123.4L463,161.2z"/>
<path class="st1" d="M372,100.6v67.2h-4.3v-31.5h-33.1v31.5h-4.3v-67.2h4.3v31.3h33.1v-31.3C367.7,100.6,372,100.6,372,100.6z"/>
<path class="st1" d="M372,82.1v4.4h-54.5v81.3h-4.3V86.5h-21.1v-4.4H372z"/>
<path class="st1" d="M285.4,82H281v85.8h4.4V82z"/>
</svg>
