<svg width="19" height="19" viewBox="0 0 19 19" fill="none" xmlns="http://www.w3.org/2000/svg">
<g id="cryptocurrency_logo">
<path id="Vector" fill-rule="evenodd" clip-rule="evenodd" d="M5.79559 5.02005H13.4741C13.909 5.02005 14.1615 5.53205 13.9062 5.89816L10.2521 11.0981C9.99536 11.4628 10.2479 11.9762 10.6841 11.9762H13.9034C14.0745 11.9762 14.2358 11.892 14.3354 11.7475L17.9488 6.60513C18.0152 6.50985 18.0508 6.39652 18.0508 6.2804C18.0508 6.16428 18.0152 6.05095 17.9488 5.95567L14.7829 1.4459C14.7341 1.37571 14.6691 1.31837 14.5934 1.2788C14.5177 1.23922 14.4335 1.21859 14.348 1.21866H4.92029C4.83532 1.21904 4.75169 1.23989 4.67648 1.27945C4.60128 1.319 4.53671 1.3761 4.48825 1.4459L1.32089 5.95567C1.25471 6.05103 1.21924 6.16433 1.21924 6.2804C1.21924 6.39648 1.25471 6.50978 1.32089 6.60513L9.20282 17.8242C9.25084 17.8945 9.31529 17.952 9.39058 17.9917C9.46587 18.0315 9.54972 18.0522 9.63486 18.0522C9.72 18.0522 9.80385 18.0315 9.87914 17.9917C9.95443 17.952 10.0189 17.8945 10.0669 17.8242L11.6772 15.5321C11.7436 15.4368 11.7792 15.3235 11.7792 15.2074C11.7792 15.0912 11.7436 14.9779 11.6772 14.8826L5.36496 5.89816C5.10826 5.53345 5.35934 5.02005 5.79559 5.02005Z" fill="#344054"/>
</g>
</svg>
