<?xml version="1.0" encoding="UTF-8"?>
<!DOCTYPE svg PUBLIC "-//W3C//DTD SVG 1.1//EN" "http://www.w3.org/Graphics/SVG/1.1/DTD/svg11.dtd">
<svg xmlns="http://www.w3.org/2000/svg" version="1.1" width="48px" height="48px" style="shape-rendering:geometricPrecision; text-rendering:geometricPrecision; image-rendering:optimizeQuality; fill-rule:evenodd; clip-rule:evenodd" xmlns:xlink="http://www.w3.org/1999/xlink">
<g><path style="opacity:0.504" fill="#f24336" d="M 36.5,8.5 C 32.4529,12.5505 28.1196,16.2172 23.5,19.5C 19.4177,16.9251 15.751,13.7585 12.5,10C 11.552,9.51722 10.552,9.35055 9.5,9.5C 10.0024,7.9153 11.0024,7.4153 12.5,8C 16.0152,11.6824 19.6819,15.1824 23.5,18.5C 27.3181,15.1824 30.9848,11.6824 34.5,8C 35.4368,7.30831 36.1034,7.47498 36.5,8.5 Z"/></g>
<g><path style="opacity:0.996" fill="#f44235" d="M 36.5,8.5 C 37.8333,9.16667 38.8333,10.1667 39.5,11.5C 34.7609,14.7308 30.4276,18.5642 26.5,23C 30.0632,28.0651 34.3965,32.2318 39.5,35.5C 38.8333,36.8333 37.8333,37.8333 36.5,38.5C 32.2022,34.7036 28.0356,30.7036 24,26.5C 19.8672,29.6311 16.0338,33.1311 12.5,37C 10.3333,37.5 9.5,36.6667 10,34.5C 13,31.5 16,28.5 19,25.5C 19.6917,24.5632 19.525,23.8966 18.5,23.5C 15.2039,19.7024 11.7039,16.0357 8,12.5C 7.4153,11.0024 7.9153,10.0024 9.5,9.5C 10.552,9.35055 11.552,9.51722 12.5,10C 15.751,13.7585 19.4177,16.9251 23.5,19.5C 28.1196,16.2172 32.4529,12.5505 36.5,8.5 Z"/></g>
<g><path style="opacity:0.526" fill="#f24336" d="M 39.5,11.5 C 35.8553,15.4799 32.1886,19.4799 28.5,23.5C 32.1886,27.5201 35.8553,31.5201 39.5,35.5C 34.3965,32.2318 30.0632,28.0651 26.5,23C 30.4276,18.5642 34.7609,14.7308 39.5,11.5 Z"/></g>
<g><path style="opacity:0.505" fill="#f24336" d="M 18.5,23.5 C 19.525,23.8966 19.6917,24.5632 19,25.5C 16,28.5 13,31.5 10,34.5C 9.5,36.6667 10.3333,37.5 12.5,37C 16.0338,33.1311 19.8672,29.6311 24,26.5C 28.0356,30.7036 32.2022,34.7036 36.5,38.5C 36.1034,39.525 35.4368,39.6917 34.5,39C 30.9848,35.3176 27.3181,31.8176 23.5,28.5C 19.6819,31.8176 16.0152,35.3176 12.5,39C 9.66667,38.8333 8.16667,37.3333 8,34.5C 11.7039,30.9643 15.2039,27.2976 18.5,23.5 Z"/></g>
</svg>
