<svg width="1512" height="982" viewBox="0 0 1512 982" fill="none" xmlns="http://www.w3.org/2000/svg">
<g clip-path="url(#clip0_5817_164943)">
<path d="M0 8C0 3.58173 3.58172 0 8 0H1504C1508.42 0 1512 3.58172 1512 8V974C1512 978.418 1508.42 982 1504 982H7.99997C3.58169 982 0 978.418 0 974V8Z" fill="black"/>
<g clip-path="url(#clip1_5817_164943)">
<path d="M128.332 1283.27C93.3633 1189.36 67.7337 1083.55 41.5771 975.563C-4.94876 783.471 -53.1475 584.465 -158.568 433.364C-163.951 425.648 -169.484 418.202 -175.118 410.934V408.811C-169.117 416.509 -163.235 424.424 -157.514 432.626C-51.9533 583.925 -3.72414 783.054 42.8272 975.258C69.0143 1083.38 94.6745 1189.31 129.707 1283.27H128.327L128.332 1283.27Z" fill="#0C111D"/>
<path d="M160.936 1283.27C132.768 1199.5 110.565 1107.85 87.9731 1014.56C41.4472 822.469 -6.75139 623.463 -112.172 472.362C-131.556 444.578 -152.6 419.778 -175.116 397.6V395.795C-152.208 418.251 -130.81 443.397 -111.116 471.624C-5.55472 622.923 42.6745 822.051 89.2258 1014.26C111.851 1107.67 134.081 1199.44 162.298 1283.27H160.936V1283.27Z" fill="#0C111D"/>
<path d="M194.792 1283.27C172.355 1210.4 153.501 1132.57 134.367 1053.56C87.8408 861.467 39.6422 662.461 -65.7787 511.363C-97.9315 465.278 -134.606 427.346 -175.116 396.167V394.527C-134.199 425.898 -97.1677 464.119 -64.7221 510.624C40.8389 661.924 89.0681 861.052 135.622 1053.26C154.784 1132.38 173.667 1210.33 196.144 1283.27H194.792Z" fill="#0C111D"/>
<path d="M229.63 1283.27C212.092 1221.91 196.522 1157.63 180.762 1092.56C134.236 900.464 86.037 701.459 -19.3839 550.36C-63.4017 487.267 -115.868 439.4 -175.117 403.338V401.815C-115.46 438.013 -62.6354 486.119 -18.3272 549.622C87.2337 700.921 135.463 900.05 182.014 1092.25C197.803 1157.44 213.398 1221.83 230.972 1283.27H229.63Z" fill="#0C111D"/>
<path d="M265.223 1283.27C251.945 1233.89 239.609 1182.97 227.156 1131.55C180.63 939.462 132.431 740.456 27.0105 589.355C-28.1824 510.25 -96.6357 455.054 -175.116 417.095V415.631C-96.2233 453.682 -27.4109 509.099 28.0672 588.615C133.628 739.914 181.857 939.042 228.409 1131.25C240.887 1182.77 253.249 1233.8 266.558 1283.27H265.221L265.223 1283.27Z" fill="#0C111D"/>
<path d="M337.949 1283.27C331.897 1258.89 325.934 1234.28 319.945 1209.55C273.419 1017.46 225.22 818.449 119.799 667.351C43.8198 558.451 -57.2905 494.856 -175.116 459.206V457.836C-56.8882 493.532 44.5862 557.297 120.856 666.613C226.417 817.912 274.646 1017.04 321.198 1209.24C327.212 1234.07 333.198 1258.79 339.278 1283.27H337.949V1283.27Z" fill="#0C111D"/>
<path d="M374.764 1283.27C371.953 1271.73 369.15 1260.15 366.339 1248.55C319.813 1056.46 271.614 857.45 166.193 706.349C80.4158 583.404 -37.3819 518.185 -175.116 485.763V484.416C-36.9821 516.871 81.1772 582.245 167.25 705.611C272.811 856.91 321.04 1056.04 367.591 1248.24C370.428 1259.95 373.256 1271.63 376.09 1283.27H374.764V1283.27Z" fill="#0C111D"/>
<path d="M411.698 1283.27C365.49 1092.51 317.225 895.327 212.589 745.349C117.327 608.812 -17.418 543.459 -175.116 515.171V513.842C-17.0259 542.15 118.083 607.644 213.643 744.611C318.478 894.869 366.768 1092.3 413.024 1283.27H411.698Z" fill="#0C111D"/>
<path d="M448.618 1283.27C405.059 1104.9 356.503 924.124 258.981 784.347C154.504 634.603 2.53979 570.474 -175.118 546.972V545.656C2.92426 569.173 155.256 633.427 260.037 783.611C357.751 923.658 406.339 1104.69 449.947 1283.27H448.621H448.618Z" fill="#0C111D"/>
<path d="M485.397 1283.27C444.119 1117.78 395.795 952.942 305.376 823.345C191.915 660.722 22.4453 599.075 -175.116 580.779V579.47C22.8247 597.772 192.658 659.533 306.433 822.604C397.035 952.466 445.402 1117.56 486.726 1283.27H485.394L485.397 1283.27Z" fill="#0C111D"/>
<path d="M521.909 1283.27C482.655 1131.08 435.082 981.752 351.772 862.342C229.524 687.126 42.2567 629.127 -175.116 616.281V614.981C42.6284 627.826 230.26 685.927 352.829 861.604C436.32 981.27 483.943 1130.86 523.243 1283.27H521.911H521.909Z" fill="#0C111D"/>
<path d="M593.606 1283.27C558.056 1158.68 513.568 1039.25 444.559 940.338C305.226 740.634 81.4523 693.175 -175.118 691.324V690.031C81.8113 691.876 305.944 739.415 445.613 939.602C514.797 1038.75 559.352 1158.45 594.95 1283.27H593.608H593.606Z" fill="#0C111D"/>
<path d="M628.503 1283.27C594.848 1172.87 552.727 1067.87 490.955 979.336C343.288 767.685 100.765 727.048 -175.116 730.464V729.171C101.121 725.745 343.999 766.453 492.012 978.6C553.952 1067.37 596.147 1172.62 629.853 1283.27H628.503Z" fill="#0C111D"/>
<path d="M662.563 1283.27C630.988 1187.21 591.803 1096.38 537.348 1018.33C381.457 794.896 119.85 762.049 -175.116 770.419V769.126C120.202 760.741 382.16 793.646 538.405 1017.6C593.022 1095.88 632.289 1186.97 663.92 1283.27H662.563Z" fill="#0C111D"/>
<path d="M695.587 1283.27C666.403 1201.67 630.769 1124.73 583.742 1057.33C419.721 822.244 138.685 798.128 -175.119 811.035V809.742C139.031 796.822 420.414 820.986 584.799 1056.6C631.986 1124.23 667.711 1201.42 696.957 1283.28H695.587V1283.27Z" fill="#0C111D"/>
<path d="M727.383 1283.27C701.043 1216.16 669.601 1152.89 630.141 1096.33C458.079 849.713 157.233 835.274 -175.113 852.182V850.889C157.58 833.963 458.762 848.44 631.197 1095.59C670.818 1152.38 702.362 1215.91 728.771 1283.27H727.386H727.383Z" fill="#0C111D"/>
<path d="M757.672 1283.27C734.797 1230.62 708.259 1180.8 676.533 1135.33C496.498 877.283 175.471 873.426 -175.116 893.708V892.415C175.812 872.115 497.17 875.998 677.588 1134.59C709.471 1180.29 736.119 1230.36 759.075 1283.27H757.669H757.672Z" fill="#0C111D"/>
<path d="M786.166 1283.27C767.571 1244.94 746.708 1208.41 722.927 1174.33C534.978 904.939 193.37 912.576 -175.116 935.502V934.209C193.712 911.265 535.642 903.64 723.984 1173.59C747.923 1207.9 768.905 1244.68 787.597 1283.28H786.163L786.166 1283.27Z" fill="#0C111D"/>
<path d="M812.478 1283.27C799.22 1259.03 784.901 1235.65 769.323 1213.32C573.509 932.66 210.906 952.695 -175.113 977.434V976.141C211.247 951.379 574.163 931.349 770.38 1212.58C786.118 1235.14 800.572 1258.77 813.947 1283.27H812.478Z" fill="#0C111D"/>
<path d="M836.111 1283.27C829.555 1272.76 822.767 1262.43 815.717 1252.32C617.715 968.525 249.183 992.18 -141.662 1017.27C-152.796 1017.98 -163.951 1018.7 -175.116 1019.4V1018.11C-163.976 1017.4 -152.85 1016.69 -141.743 1015.98C249.47 990.869 618.352 967.191 816.771 1251.59C823.987 1261.93 830.928 1272.5 837.626 1283.28H836.111V1283.27Z" fill="#0C111D"/>
<path d="M301.384 1283.27C291.885 1246.25 282.752 1208.54 273.55 1170.55C227.024 978.46 178.825 779.454 73.4044 628.353C7.59402 534.027 -77.0733 473.696 -175.118 436.063V434.663C-76.6659 472.362 8.36287 532.881 74.4584 627.615C180.019 778.914 228.249 978.043 274.8 1170.25C284.025 1208.34 293.186 1246.15 302.711 1283.27H301.379H301.384Z" fill="url(#paint0_linear_5817_164943)"/>
<path d="M558.023 1283.27C520.643 1144.74 474.346 1010.53 398.165 901.34C267.3 713.775 61.9354 660.521 -175.117 653.205V651.909C62.302 659.223 268.029 712.563 399.222 900.602C475.578 1010.04 521.933 1144.51 559.359 1283.27H558.023Z" fill="url(#paint1_linear_5817_164943)"/>
<path d="M889.209 -11.7693C858.26 -10.9012 827.424 -10.751 796.916 -11.7693L889.209 -11.7693ZM2235.17 740.013C1958.45 844.588 1838.45 783.934 1771.72 660.024C1736.04 593.764 1715.61 509.427 1694.58 422.608C1668.12 313.361 1640.71 200.182 1580.75 114.249C1531.48 43.6203 1463.63 6.47578 1384.28 -11.7719L1387.47 -11.7719C1465.68 6.75326 1532.58 43.9131 1581.36 113.829C1641.39 199.876 1668.82 313.125 1695.3 422.435C1716.31 509.206 1736.73 593.494 1772.37 659.675C1838.94 783.295 1958.75 843.758 2235.17 739.229L2235.17 740.01L2235.17 740.013Z" fill="#0C111D"/>
<path d="M2235.17 771.809C1977.14 862.732 1862.67 802.095 1798.11 682.203C1762.42 615.943 1742 531.606 1720.97 444.787C1694.51 335.54 1667.1 222.36 1607.14 136.427C1494.53 -24.9733 1284.94 -11.5217 1062.66 2.74699C924.079 11.6417 780.572 20.8496 652.488 -11.7686L655.515 -11.7686C782.767 19.9688 925.115 10.8399 1062.61 2.0164C1285.1 -12.2651 1494.89 -25.7294 1607.74 136.012C1667.77 222.06 1695.2 335.306 1721.68 444.619C1742.69 531.39 1763.11 615.678 1798.75 681.859C1863.17 801.464 1977.45 861.912 2235.17 771.033L2235.17 771.809Z" fill="#0C111D"/>
<path d="M2235.17 802.92C1995.64 880.621 1886.82 820.109 1824.49 704.383C1788.81 638.124 1768.38 553.787 1747.35 466.968C1720.89 357.721 1693.48 244.541 1633.53 158.608C1520.92 -2.79255 1311.33 10.659 1089.04 24.9252C928.015 35.2608 760.33 46.0241 617.926 -8.91237C615.508 -9.8441 613.132 -10.7987 610.797 -11.7687L612.722 -11.7687C614.52 -11.0329 616.343 -10.31 618.191 -9.59715C760.442 45.2808 928.045 34.5226 1089 24.192C1311.49 9.91058 1521.28 -3.55368 1634.13 158.188C1694.16 244.236 1721.59 357.482 1748.07 466.795C1769.08 553.565 1789.5 637.854 1825.14 704.035C1887.31 819.48 1995.95 879.806 2235.17 802.149L2235.17 802.918L2235.17 802.92Z" fill="#0C111D"/>
<path d="M2235.17 833.269C2013.93 898.2 1910.87 837.951 1850.88 726.561C1815.19 660.301 1794.77 575.964 1773.74 489.145C1747.28 379.898 1719.87 266.718 1659.91 180.785C1547.3 19.3847 1337.71 32.8362 1115.43 47.1024C954.4 57.438 786.716 68.2013 644.312 13.2649C625.687 6.07832 609.57 -2.21309 596.742 -11.7697L597.977 -11.7697C610.619 -2.50076 626.395 5.56665 644.577 12.5826C786.828 67.4605 954.431 56.7049 1115.39 46.3718C1337.88 32.0904 1547.67 18.626 1660.51 180.368C1720.55 266.415 1747.98 379.664 1774.46 488.974C1795.47 575.745 1815.89 660.034 1851.53 726.214C1911.37 837.327 2014.24 897.396 2235.17 832.503L2235.17 833.267L2235.17 833.269Z" fill="#0C111D"/>
<path d="M2235.17 862.761C2032 915.421 1934.82 855.607 1877.26 748.738C1841.58 682.478 1821.15 598.142 1800.13 511.323C1773.67 402.076 1746.25 288.896 1686.3 202.963C1573.69 41.5622 1364.1 55.0138 1141.82 69.28C980.789 79.6156 813.104 90.3789 670.701 35.4424C643.956 25.1246 622.385 12.526 608.292 -2.82214C605.641 -5.70643 603.258 -8.69005 601.15 -11.7729L602.044 -11.7729C604.06 -8.8657 606.326 -6.05009 608.832 -3.32109C622.846 11.9405 644.322 24.478 670.965 34.7576C813.216 89.6355 980.819 78.8773 1141.77 68.5468C1364.26 54.2679 1574.06 40.8011 1686.9 202.543C1746.94 288.591 1774.36 401.839 1800.84 511.149C1821.85 597.92 1842.27 682.209 1877.91 748.39C1935.32 854.989 2032.31 914.622 2235.17 862.002L2235.17 862.761Z" fill="#0C111D"/>
<path d="M2235.17 891.287C2049.85 932.214 1958.65 873.052 1903.65 770.918C1867.97 704.658 1847.54 620.321 1826.51 533.502C1800.05 424.255 1772.64 311.076 1712.68 225.143C1600.07 63.7419 1390.48 77.1934 1168.2 91.4596C1007.17 101.795 839.488 112.559 697.084 57.6221C670.342 47.3043 648.768 34.7056 634.675 19.3575C626.105 10.0274 620.299 -0.315817 617.771 -11.7715L618.532 -11.7715C621.053 -0.5042 626.779 9.67358 635.215 18.8611C649.229 34.1226 670.708 46.6602 697.349 56.9398C839.6 111.818 1007.21 101.06 1168.16 90.729C1390.65 76.4501 1600.44 62.9832 1713.29 224.725C1773.32 310.773 1800.75 424.021 1827.23 533.332C1848.24 620.102 1868.66 704.391 1904.3 770.572C1959.16 872.441 2050.16 931.425 2235.17 890.536L2235.17 891.289L2235.17 891.287Z" fill="#0C111D"/>
<path d="M2235.17 918.731C2067.45 948.529 1982.36 890.263 1930.04 793.095C1894.35 726.836 1873.93 642.499 1852.9 555.682C1826.44 446.435 1799.03 333.256 1739.07 247.323C1626.46 85.9218 1416.87 99.3734 1194.59 113.64C1033.56 123.975 865.873 134.738 723.469 79.802C696.725 69.4842 675.154 56.8855 661.061 41.5374C647.276 26.5254 640.64 8.90136 643.299 -11.7698L644.042 -11.7698C641.386 8.71298 647.95 26.174 661.6 41.041C675.614 56.3025 697.094 68.8427 723.734 79.1198C865.985 133.998 1033.59 123.239 1194.54 112.909C1417.03 98.6275 1626.83 85.1632 1739.67 246.903C1799.71 332.95 1827.13 446.199 1853.61 555.509C1874.63 642.28 1895.04 726.568 1930.68 792.747C1982.87 889.654 2067.77 947.745 2235.17 917.98L2235.17 918.731Z" fill="#0C111D"/>
<path d="M2235.17 944.949C2084.78 964.297 2005.93 907.204 1956.42 815.276C1920.73 749.016 1900.31 664.682 1879.28 577.863C1852.82 468.616 1825.41 355.436 1765.45 269.503C1652.85 108.102 1443.25 121.554 1220.97 135.82C1059.94 146.156 892.256 156.919 749.855 101.983C723.11 91.6648 701.539 79.066 687.446 63.7179C670.789 45.5797 664.569 23.623 672.577 -2.91099C673.45 -5.80801 674.497 -8.76104 675.716 -11.7675L676.511 -11.7675C675.253 -8.68722 674.178 -5.66288 673.282 -2.69967C665.359 23.5568 671.51 45.2794 687.986 63.2215C702 78.4831 723.477 91.0233 750.12 101.3C892.371 156.178 1059.98 145.42 1220.93 135.09C1443.42 120.808 1653.21 107.344 1766.06 269.083C1826.09 355.131 1853.52 468.379 1880 577.69C1901.01 664.46 1921.43 748.749 1957.07 814.93C2006.44 906.598 2085.1 963.518 2235.17 944.201L2235.17 944.949Z" fill="#0C111D"/>
<path d="M2235.17 969.785C2101.79 979.456 2029.33 923.848 1982.8 837.451C1947.12 771.191 1926.69 686.855 1905.67 600.038C1879.21 490.791 1851.79 377.612 1791.84 291.679C1679.23 130.278 1469.64 143.729 1247.36 157.996C1086.33 168.331 918.64 179.094 776.239 124.158C749.496 113.84 727.923 101.239 713.83 85.8935C697.173 67.7553 690.953 45.7985 698.96 19.2645C701.893 9.545 706.741 -0.78809 713.687 -11.7728L714.553 -11.7728C707.515 -0.704082 702.614 9.70024 699.666 19.4732C691.739 45.7297 697.893 67.4523 714.37 85.3945C728.384 100.653 749.863 113.196 776.503 123.473C918.754 178.351 1086.36 167.593 1247.31 157.262C1469.81 142.981 1679.6 129.517 1792.44 291.256C1852.48 377.304 1879.9 490.552 1906.38 599.862C1927.4 686.633 1947.81 770.922 1983.45 837.102C2029.84 923.247 2102.11 978.685 2235.17 969.039L2235.17 969.785Z" fill="#0C111D"/>
<path d="M2235.17 993.067C2118.43 993.953 2052.56 940.157 2009.19 859.634C1973.51 793.374 1953.08 709.037 1932.05 622.218C1905.59 512.971 1878.18 399.792 1818.22 313.859C1705.61 152.458 1496.02 165.909 1273.74 180.176C1112.71 190.511 945.028 201.275 802.624 146.338C775.879 136.02 754.308 123.419 740.215 108.073C723.559 89.9353 717.338 67.9785 725.346 41.4446C730.181 25.4295 740.208 7.74697 756.264 -11.771L757.211 -11.771C741 7.8488 730.899 25.5975 726.051 41.6533C718.125 67.9098 724.279 89.6324 740.755 107.575C754.769 122.834 776.249 135.374 802.889 145.653C945.14 200.531 1112.74 189.773 1273.7 179.443C1496.19 165.161 1705.98 151.697 1818.83 313.436C1878.86 399.484 1906.29 512.732 1932.77 622.043C1953.78 708.813 1974.2 793.102 2009.84 859.283C2053.07 939.559 2118.75 993.19 2235.17 992.321L2235.17 993.065L2235.17 993.067Z" fill="#0C111D"/>
<path d="M2179.9 1005.2C2111.91 986.134 2067.6 941.271 2035.58 881.811C1999.89 815.551 1979.47 731.214 1958.44 644.395C1931.98 535.148 1904.57 421.968 1844.61 336.035C1732 174.635 1522.41 188.086 1300.13 202.352C1139.1 212.688 971.414 223.451 829.012 168.515C802.268 158.197 780.697 145.596 766.604 130.25C749.947 112.112 743.726 90.1553 751.734 63.6214C758.336 41.7435 774.632 16.7522 802.749 -11.7725L803.78 -11.7725C775.444 16.8744 759.052 41.9293 752.439 63.8326C744.516 90.0891 750.667 111.812 767.143 129.754C781.157 145.015 802.634 157.556 829.277 167.833C971.528 222.711 1139.13 211.952 1300.09 201.622C1522.58 187.34 1732.37 173.876 1845.22 335.618C1905.25 421.666 1932.68 534.912 1959.16 644.224C1980.17 730.995 2000.59 815.284 2036.23 881.464C2068.55 941.497 2113.46 986.613 2182.74 1005.2L2179.9 1005.2Z" fill="#0C111D"/>
<path d="M2153.92 1005.2C2114.17 981.692 2084.91 946.594 2061.96 903.992C2026.28 837.732 2005.85 753.395 1984.83 666.576C1958.37 557.329 1930.95 444.149 1871 358.216C1758.39 196.816 1548.8 210.267 1326.52 224.533C1165.49 234.869 997.802 245.632 855.398 190.696C828.656 180.378 807.082 167.779 792.989 152.431C776.332 134.293 770.112 112.336 778.12 85.8022C786.105 59.3472 808.259 28.3379 848.358 -7.96906C849.751 -9.22919 851.166 -10.497 852.602 -11.7699L853.707 -11.7699C852.063 -10.3137 850.438 -8.86518 848.849 -7.4243C808.857 28.7885 786.772 59.6807 778.825 86.0135C770.899 112.27 777.053 133.993 793.529 151.935C807.543 167.196 829.023 179.736 855.663 190.014C997.914 244.891 1165.52 234.133 1326.47 223.803C1548.96 209.521 1758.76 196.057 1871.6 357.799C1931.64 443.846 1959.06 557.092 1985.54 666.405C2006.56 753.176 2026.97 837.464 2062.61 903.645C2085.7 946.513 2115.21 981.763 2155.41 1005.2L2153.92 1005.2Z" fill="#0C111D"/>
<path d="M2149.52 1005.2C2124.8 983.787 2104.92 956.94 2088.35 926.17C2052.66 859.91 2032.24 775.573 2011.21 688.754C1984.75 579.507 1957.34 466.327 1897.38 380.394C1784.77 218.994 1575.18 232.445 1352.9 246.714C1191.87 257.05 1024.19 267.813 881.782 212.876C855.039 202.559 833.466 189.96 819.373 174.612C802.716 156.474 796.496 134.517 804.503 107.983C812.488 81.5279 834.642 50.5211 874.742 14.2116C883.987 5.83873 894.207 -2.82179 905.407 -11.7674L906.584 -11.7674C895.111 -2.62577 884.666 6.21547 875.233 14.7563C835.24 50.9691 813.155 81.8613 805.209 108.194C797.282 134.451 803.436 156.173 819.913 174.115C833.927 189.374 855.406 201.915 882.046 212.194C1024.3 267.072 1191.9 256.314 1352.86 245.983C1575.35 231.702 1785.14 218.238 1897.98 379.979C1958.02 466.027 1985.45 579.273 2011.92 688.586C2032.94 775.357 2053.36 859.645 2089 925.826C2105.67 956.779 2125.69 983.759 2150.67 1005.2L2149.52 1005.2L2149.52 1005.2Z" fill="#0C111D"/>
<path d="M2153.61 1005.2C2138.81 988.372 2126 969.274 2114.73 948.348C2079.05 882.088 2058.62 797.751 2037.59 710.932C2011.14 601.686 1983.72 488.506 1923.77 402.573C1811.16 241.172 1601.57 254.624 1379.29 268.892C1218.26 279.228 1050.57 289.991 908.17 235.052C881.428 224.734 859.854 212.136 845.761 196.788C829.104 178.649 822.884 156.693 830.892 130.159C838.876 103.704 861.03 72.6968 901.13 36.3873C917.82 21.276 937.636 5.23792 960.822 -11.7725L962.062 -11.7725C938.553 5.43904 918.487 21.6578 901.621 36.9295C861.629 73.1423 839.543 104.035 831.597 130.367C823.673 156.624 829.825 178.346 846.301 196.289C860.315 211.55 881.792 224.088 908.435 234.367C1050.69 289.245 1218.29 278.487 1379.24 268.157C1601.73 253.875 1811.52 240.411 1924.37 402.153C1984.41 488.2 2011.83 601.449 2038.31 710.759C2059.33 797.53 2079.74 881.818 2115.38 947.999C2126.73 969.075 2139.64 988.295 2154.6 1005.2L2153.61 1005.2Z" fill="#0C111D"/>
<path d="M2162.48 1005.2C2154.78 994.318 2147.69 982.73 2141.12 970.526C2105.43 904.266 2085.01 819.93 2063.98 733.111C2037.52 623.864 2010.11 510.684 1950.15 424.751C1837.55 263.35 1627.95 276.802 1405.67 291.071C1244.64 301.406 1076.96 312.169 934.553 257.23C907.81 246.913 886.237 234.314 872.144 218.966C855.487 200.828 849.267 178.871 857.274 152.337C865.259 125.882 887.413 94.8725 927.512 58.5655C951.281 37.0441 981.376 13.6464 1018.56 -11.7725L1019.85 -11.7725C982.298 13.8603 951.938 37.4361 928.004 59.1078C888.011 95.3206 865.926 126.213 857.977 152.546C850.051 178.802 856.205 200.525 872.681 218.467C886.695 233.728 908.172 246.269 934.815 256.546C1077.07 311.423 1244.67 300.665 1405.62 290.335C1628.11 276.053 1837.9 262.589 1950.75 424.331C2010.78 510.379 2038.21 623.627 2064.69 732.937C2085.71 819.708 2106.12 903.997 2141.76 970.177C2148.41 982.514 2155.59 994.217 2163.39 1005.19L2162.48 1005.19L2162.48 1005.2Z" fill="#0C111D"/>
<path d="M2174.56 1005.2C2172.15 1001.11 2169.79 996.951 2167.5 992.707C2131.82 926.447 2111.39 842.11 2090.37 755.291C2063.91 646.045 2036.49 532.865 1976.54 446.932C1863.93 285.531 1654.34 298.983 1432.06 313.249C1271.03 323.584 1103.34 334.348 960.938 279.411C934.196 269.094 912.623 256.495 898.53 241.147C881.873 223.008 875.652 201.052 883.66 174.518C891.645 148.063 913.799 117.056 953.898 80.7465C984.427 53.1051 1025.38 22.3732 1078.4 -11.7699L1079.74 -11.7699C1026.3 22.5973 985.076 53.5048 954.39 81.2887C914.397 117.501 892.312 148.394 884.363 174.727C876.437 200.983 882.591 222.706 899.067 240.648C913.081 255.909 934.558 268.449 961.201 278.726C1103.45 333.604 1271.05 322.846 1432.01 312.516C1654.5 298.237 1864.29 284.77 1977.14 446.512C2037.17 532.559 2064.6 645.808 2091.08 755.118C2112.09 841.889 2132.51 926.177 2168.15 992.358C2170.5 996.722 2172.93 1000.99 2175.42 1005.2L2174.56 1005.2Z" fill="#0C111D"/>
<path d="M2188.84 1005.2C2156.24 940.502 2136.77 860.111 2116.75 777.47C2090.29 668.223 2062.88 555.043 2002.93 469.11C1890.32 307.709 1680.73 321.161 1458.44 335.427C1297.42 345.763 1129.73 356.526 987.327 301.59C960.584 291.272 939.011 278.673 924.918 263.325C908.261 245.187 902.041 223.23 910.049 196.696C918.033 170.238 940.187 139.232 980.287 102.925C1017.28 69.4231 1069.59 31.3876 1140.15 -11.7699L1141.55 -11.7699C1070.53 31.6167 1017.93 69.833 980.778 103.469C940.786 139.682 918.7 170.574 910.751 196.907C902.828 223.164 908.979 244.886 925.455 262.829C939.469 278.09 960.946 290.63 987.589 300.907C1129.84 355.785 1297.44 345.027 1458.4 334.696C1680.89 320.418 1890.68 306.951 2003.52 468.693C2063.56 554.74 2090.99 667.989 2117.46 777.299C2137.5 860.037 2157 940.52 2189.67 1005.2L2188.84 1005.2Z" fill="#0C111D"/>
<path d="M2204.81 1005.2C2178.28 944.748 2160.92 873.087 2143.14 799.65C2116.68 690.404 2089.26 577.224 2029.31 491.291C1916.7 329.89 1707.11 343.342 1484.83 357.608C1323.8 367.943 1156.11 378.707 1013.71 323.77C986.968 313.453 965.395 300.854 951.302 285.506C934.645 267.367 928.425 245.411 936.432 218.877C944.417 192.419 966.571 161.415 1006.67 125.105C1049.88 85.9779 1113.98 40.6642 1203.64 -11.7699L1205.09 -11.7699C1114.91 40.9035 1050.52 86.3928 1007.16 125.648C967.169 161.86 945.084 192.753 937.135 219.086C929.209 245.342 935.363 267.065 951.839 285.009C965.853 300.271 987.332 312.811 1013.97 323.088C1156.22 377.966 1323.83 367.208 1484.78 356.877C1707.27 342.596 1917.06 329.131 2029.91 490.871C2089.94 576.918 2117.37 690.167 2143.85 799.477C2161.66 873 2179.04 944.743 2205.61 1005.2L2204.81 1005.2L2204.81 1005.2Z" fill="#0C111D"/>
<path d="M2222.04 1005.2C2200.51 949.74 2185.18 886.474 2169.52 821.829C2143.06 712.582 2115.65 599.402 2055.7 513.469C1943.09 352.068 1733.5 365.52 1511.21 379.786C1350.18 390.122 1182.5 400.885 1040.1 345.949C1013.35 335.631 991.78 323.032 977.687 307.684C961.031 289.546 954.81 267.589 962.818 241.055C970.803 214.597 992.959 183.591 1033.06 147.284C1082.25 102.741 1158.49 50.1851 1268.74 -11.7699L1270.23 -11.7699C1159.43 50.4321 1082.87 103.164 1033.55 147.826C993.555 184.039 971.47 214.931 963.521 241.264C955.594 267.52 961.749 289.243 978.225 307.185C992.239 322.447 1013.72 334.987 1040.36 345.264C1182.61 400.142 1350.21 389.383 1511.17 379.053C1733.66 364.771 1943.45 351.307 2056.3 513.046C2116.33 599.094 2143.76 712.343 2170.24 821.653C2185.91 886.378 2201.25 949.72 2222.83 1005.2L2222.04 1005.2Z" fill="#0C111D"/>
<path d="M2235.17 990.104C2220.2 944.301 2208.16 894.576 2195.91 844.008C2169.45 734.761 2142.04 621.581 2082.08 535.648C1969.47 374.247 1759.88 387.699 1537.6 401.965C1376.57 412.301 1208.89 423.064 1066.48 368.127C1039.74 357.81 1018.17 345.208 1004.07 329.863C987.416 311.725 981.196 289.768 989.204 263.234C997.188 236.776 1019.34 205.77 1059.44 169.463C1114.4 119.699 1203.12 59.9359 1335.3 -11.7692L1336.84 -11.7692C1204.06 60.1879 1115.01 120.129 1059.93 170.007C1019.94 206.22 997.853 237.112 989.904 263.445C981.98 289.702 988.132 311.424 1004.61 329.366C1018.62 344.628 1040.1 357.168 1066.74 367.445C1208.99 422.323 1376.6 411.565 1537.55 401.234C1760.04 386.953 1969.83 373.489 2082.68 535.228C2142.71 621.276 2170.14 734.524 2196.62 843.835C2208.67 893.601 2220.53 942.547 2235.17 987.731L2235.17 990.104Z" fill="#0C111D"/>
<path d="M2235.17 918.688C2230.82 901.378 2226.57 883.833 2222.29 866.188C2195.83 756.942 2168.42 643.762 2108.46 557.829C1995.86 396.428 1786.26 409.88 1563.98 424.146C1402.95 434.481 1235.27 445.245 1092.87 390.308C1066.12 379.99 1044.55 367.389 1030.46 352.044C1013.8 333.905 1007.58 311.949 1015.59 285.415C1023.57 258.957 1045.73 227.953 1085.83 191.643C1146.35 136.834 1247.83 69.8972 1403.24 -11.7693L1404.82 -11.7693C1248.78 70.1568 1146.97 137.269 1086.32 192.186C1046.33 228.398 1024.24 259.291 1016.29 285.623C1008.37 311.88 1014.52 333.602 1031 351.545C1045.01 366.804 1066.49 379.344 1093.13 389.623C1235.38 444.501 1402.99 433.743 1563.94 423.413C1786.43 409.131 1996.22 395.667 2109.07 557.406C2169.1 643.456 2196.53 756.702 2223.01 866.015C2227.05 882.697 2231.06 899.288 2235.17 915.677L2235.17 918.688Z" fill="#0C111D"/>
<path d="M2235.17 833.368C2212.14 742.023 2184.78 651.566 2134.85 580.006C2022.24 418.605 1812.65 432.057 1590.37 446.323C1429.34 456.659 1261.66 467.422 1119.25 412.486C1092.51 402.168 1070.94 389.569 1056.85 374.221C1040.19 356.083 1033.97 334.126 1041.98 307.592C1049.96 281.137 1072.11 250.13 1112.21 213.821C1178.14 154.129 1292.62 80.0538 1472.45 -11.7701L1474.07 -11.7701C1293.56 80.3211 1178.74 154.569 1112.7 214.363C1072.71 250.576 1050.63 281.468 1042.68 307.801C1034.75 334.057 1040.91 355.78 1057.38 373.722C1071.4 388.984 1092.87 401.524 1119.52 411.801C1261.77 466.679 1429.37 455.921 1590.33 445.59C1812.82 431.309 2022.61 417.844 2135.45 579.586C2184.94 650.515 2212.27 739.923 2235.17 830.374L2235.17 833.368Z" fill="#0C111D"/>
<path d="M2235.17 761.281C2216.75 703.544 2193.79 648.847 2161.24 602.184C2048.63 440.784 1839.04 454.235 1616.75 468.501C1455.73 478.837 1288.04 489.6 1145.64 434.664C1118.89 424.346 1097.32 411.747 1083.23 396.399C1066.57 378.261 1060.35 356.304 1068.36 329.77C1076.34 303.315 1098.5 272.309 1138.6 235.999C1209.75 171.575 1337.47 90.3918 1542.86 -11.7702L1544.51 -11.7702C1338.41 90.6668 1210.34 172.02 1139.09 236.541C1099.1 272.754 1077.01 303.646 1069.06 329.979C1061.14 356.236 1067.29 377.958 1083.77 395.9C1097.78 411.162 1119.26 423.702 1145.9 433.979C1288.15 488.857 1455.76 478.099 1616.71 467.768C1839.2 453.487 2048.99 440.023 2161.83 601.764C2194.04 647.913 2216.85 701.885 2235.17 758.876L2235.17 761.279L2235.17 761.281Z" fill="#0C111D"/>
<path d="M2235.17 711.757C2221.85 680.607 2206.32 651.161 2187.62 624.365C2075.01 462.964 1865.42 476.416 1643.14 490.682C1482.11 501.018 1314.42 511.781 1172.02 456.845C1145.28 446.527 1123.71 433.928 1109.61 418.58C1092.96 400.442 1086.74 378.485 1094.74 351.951C1102.73 325.496 1124.88 294.487 1164.98 258.18C1241.21 189.16 1382.35 100.911 1614.38 -11.7677L1616.06 -11.7677C1383.28 101.193 1241.8 189.611 1165.47 258.724C1125.48 294.937 1103.4 325.829 1095.45 352.162C1087.52 378.419 1093.68 400.141 1110.15 418.084C1124.17 433.345 1145.64 445.883 1172.28 456.162C1314.54 511.04 1482.14 500.282 1643.09 489.952C1865.58 475.67 2075.37 462.206 2188.22 623.948C2206.64 650.336 2221.98 679.294 2235.17 709.906L2235.17 711.754L2235.17 711.757Z" fill="#0C111D"/>
</g>
</g>
<defs>
<linearGradient id="paint0_linear_5817_164943" x1="-115.027" y1="1283.27" x2="583.324" y2="1272.2" gradientUnits="userSpaceOnUse">
<stop offset="0.1" stop-color="#15B79E"/>
<stop offset="0.32" stop-color="#4541FF"/>
<stop offset="0.575" stop-color="#FF1A6C"/>
</linearGradient>
<linearGradient id="paint1_linear_5817_164943" x1="-82.7506" y1="1283.27" x2="989.812" y2="1248.15" gradientUnits="userSpaceOnUse">
<stop offset="0.1" stop-color="#15B79E"/>
<stop offset="0.32" stop-color="#4541FF"/>
<stop offset="0.575" stop-color="#FF1A6C"/>
</linearGradient>
<clipPath id="clip0_5817_164943">
<path d="M0 8C0 3.58173 3.58172 0 8 0H1504C1508.42 0 1512 3.58172 1512 8V974C1512 978.418 1508.42 982 1504 982H7.99997C3.58169 982 0 978.418 0 974V8Z" fill="white"/>
</clipPath>
<clipPath id="clip1_5817_164943">
<rect width="1512" height="982" fill="white" transform="matrix(-1 0 0 -1 1512 982)"/>
</clipPath>
</defs>
</svg>
