<svg width="36" height="37" viewBox="0 0 36 37" fill="none" xmlns="http://www.w3.org/2000/svg">
<rect x="0.4" y="1.30039" width="34.4" height="34.4" rx="17.2" fill="#0C111D"/>
<path d="M23.686 26.083C28.0016 26.083 31.5 22.5846 31.5 18.269C31.5 13.9535 28.0016 10.4551 23.686 10.4551C19.3705 10.4551 15.8721 13.9535 15.8721 18.269C15.8721 22.5846 19.3705 26.083 23.686 26.083Z" fill="#F7931A"/>
<path d="M27.1205 17.3015C27.2739 16.2779 26.4939 15.7275 25.4283 15.3602L25.7741 13.9733L24.9302 13.7633L24.5932 15.1136C24.3715 15.0579 24.1439 15.0062 23.9168 14.9544L24.2562 13.5953L23.4123 13.3848L23.0665 14.7713C22.8829 14.7293 22.7022 14.6882 22.5274 14.6443L22.5283 14.6399L21.3641 14.3493L21.1394 15.2508C21.1394 15.2508 21.766 15.3944 21.7528 15.4032C22.0947 15.4887 22.1562 15.7148 22.1459 15.8945L21.7523 17.4744C21.7758 17.4803 21.806 17.489 21.8402 17.5022L21.7509 17.4803L21.199 19.6936C21.157 19.7971 21.051 19.9529 20.8117 19.8938C20.8205 19.906 20.1983 19.7409 20.1983 19.7409L19.7793 20.7069L20.8781 20.9809C21.0823 21.0322 21.2825 21.0859 21.4793 21.1362L21.1301 22.5388L21.9736 22.7488L22.3193 21.3618C22.5498 21.4239 22.7735 21.4815 22.9923 21.5362L22.6475 22.9173L23.4914 23.1273L23.8406 21.7276C25.2803 22.0001 26.3626 21.8903 26.8182 20.5883C27.1855 19.5402 26.8001 18.9351 26.0427 18.541C26.5945 18.414 27.0096 18.0512 27.1205 17.3015V17.3015ZM25.1914 20.0061C24.9311 21.0546 23.1657 20.4876 22.5933 20.3455L23.0573 18.4873C23.6296 18.6304 25.4644 18.9131 25.1914 20.0061ZM25.4527 17.2864C25.2149 18.2402 23.7459 17.7552 23.2697 17.6365L23.6897 15.9516C24.1659 16.0703 25.7008 16.2916 25.4527 17.2864Z" fill="white"/>
<path d="M11.314 26.083C15.6295 26.083 19.1279 22.5846 19.1279 18.269C19.1279 13.9535 15.6295 10.4551 11.314 10.4551C6.99843 10.4551 3.5 13.9535 3.5 18.269C3.5 22.5846 6.99843 26.083 11.314 26.083Z" fill="black"/>
<path d="M11.3145 12.4082V16.7401L14.9758 18.3761L11.3145 12.4082Z" fill="white" fill-opacity="0.602"/>
<path d="M11.5573 12.4082L7.89551 18.3761L11.5573 16.7401V12.4082Z" fill="white"/>
<path d="M11.3135 21.3715V24.3149L14.9772 19.2461L11.3135 21.3715Z" fill="white" fill-opacity="0.602"/>
<path d="M11.5573 24.3149V21.371L7.89551 19.2461L11.5573 24.3149Z" fill="white"/>
<path d="M11.3145 20.5637L14.9758 18.4378L11.3145 16.8027V20.5637Z" fill="white" fill-opacity="0.2"/>
<path d="M7.89551 18.4378L11.5573 20.5637V16.8027L7.89551 18.4378Z" fill="white" fill-opacity="0.602"/>
</svg>
